<?xml version="1.0" encoding="utf-8"?>
<!-- Generator: Adobe Illustrator 20.0.0, SVG Export Plug-In . SVG Version: 6.00 Build 0)  -->
<svg version="1.1" id="Layer_1" xmlns="http://www.w3.org/2000/svg" xmlns:xlink="http://www.w3.org/1999/xlink" x="0px" y="0px"
	 viewBox="0 0 29.7 30" style="enable-background:new 0 0 29.7 30;" xml:space="preserve">
<style type="text/css">
	.st0{fill:#535353;}
</style>
<g>
	<path class="st0" d="M14.8,3.7C8.6,3.7,3.5,8.8,3.5,15c0,6.2,5.1,11.3,11.3,11.3c6.3,0,11.4-5.1,11.4-11.3
		C26.2,8.8,21.1,3.7,14.8,3.7z M14.8,24.5c-5.2,0-9.5-4.2-9.5-9.5c0-5.2,4.2-9.5,9.5-9.5c5.3,0,9.5,4.2,9.5,9.5
		C24.3,20.2,20.1,24.5,14.8,24.5z"/>
	<polygon class="st0" points="16.4,15.3 21.3,10.1 18.6,10.1 15.1,14 11.5,10.1 8.8,10.1 13.7,15.3 8.6,20.9 11.2,20.9 15.1,16.8 
		18.9,20.9 21.7,20.9 	"/>
</g>
</svg>
