<?xml version="1.0" encoding="utf-8"?>
<!-- Generator: Adobe Illustrator 20.0.0, SVG Export Plug-In . SVG Version: 6.00 Build 0)  -->
<svg version="1.1" id="Layer_1" xmlns="http://www.w3.org/2000/svg" xmlns:xlink="http://www.w3.org/1999/xlink" x="0px" y="0px"
	 viewBox="0 0 29.7 30" style="enable-background:new 0 0 29.7 30;" xml:space="preserve">
<style type="text/css">
	.st0{fill:#535353;}
</style>
<g id="Shape_11">
	<g>
		<path class="st0" d="M20.1,17.9c2.9-3.9,2.6-9.5-1-13C17.2,3,14.7,2,12,2S6.8,3,4.9,4.9C3.1,6.8,2,9.3,2,12s1,5.2,2.9,7.1
			S9.3,22,12,22c2.2,0,4.2-0.7,5.9-1.9l7.7,7.7l2.1-2.1L20.1,17.9z M17.7,17.7C16.2,19.2,14.2,20,12,20c-2.1,0-4.2-0.8-5.7-2.3
			S4,14.2,4,12c0-2.1,0.8-4.2,2.3-5.7C7.9,4.8,9.9,4,12,4s4.2,0.8,5.7,2.3C20.8,9.5,20.8,14.5,17.7,17.7z"/>
	</g>
</g>
</svg>
