<?xml version="1.0" encoding="utf-8"?>
<!-- Generator: Adobe Illustrator 20.0.0, SVG Export Plug-In . SVG Version: 6.00 Build 0)  -->
<svg version="1.1" id="Layer_1" xmlns="http://www.w3.org/2000/svg" xmlns:xlink="http://www.w3.org/1999/xlink" x="0px" y="0px"
	 viewBox="0 0 346 79" style="enable-background:new 0 0 346 79;" xml:space="preserve">
<style type="text/css">
	.st0{fill:#1385CC;}
	.st1{fill:#FFFFFF;}
	.st2{font-family:'HelveticaNeue';}
	.st3{font-size:30px;}
	.st4{fill:none;stroke:#FFFFFF;stroke-miterlimit:10;}
</style>
<g id="Rounded_Rectangle_11_copy_3">
	<g>
		<path class="st0" d="M338,0H8C3.6,0,0,3.6,0,8v63c0,4.4,3.6,8,8,8h330c4.4,0,8-3.6,8-8V8C346,3.6,342.4,0,338,0z"/>
	</g>
</g>
<g id="Shape_13_1_">
	<g>
		<path class="st1" d="M83.4,44.4v-4.8c0-0.6-0.2-1.2-0.5-1.7l-3.6-6.1c-0.6-1-1.7-1.6-2.9-1.6h-4.6c-0.7,0-1.3,0.6-1.3,1.3v11.4H69
			V30.2c0-1.1-0.9-2-2-2H52.7c0.2,0.4,0.3,0.8,0.4,1.3H67c0.4,0,0.7,0.3,0.7,0.7v16.7h-7c-0.3-2.3-2.3-4-4.7-4s-4.4,1.7-4.7,4h-4.9
			c-0.4,0-0.7-0.3-0.7-0.7v-0.7h0.7c1.1,0,2-0.9,2-2v-2.7c0-0.3-0.3-0.6-0.6-0.6h-2.1v-3c-0.4-0.1-0.9-0.2-1.3-0.4v9.4
			c0,1.1,0.9,2,2,2h4.9c0.3,2.3,2.3,4,4.7,4s4.4-1.7,4.7-4h9.8c0.3,2.3,2.3,4,4.7,4c2.4,0,4.4-1.7,4.7-4h2.8c0.7,0,1.3-0.6,1.3-1.3
			v-1.3C84.1,45.1,83.8,44.6,83.4,44.4z M45.5,41.5H47v2c0,0.4-0.3,0.7-0.7,0.7h-0.7L45.5,41.5L45.5,41.5z M55.9,50.9
			c-1.9,0-3.5-1.5-3.5-3.4l0,0l0,0c0-1.9,1.6-3.4,3.5-3.4s3.5,1.5,3.5,3.4S57.8,50.9,55.9,50.9z M70.4,46.9h-1.5v-2.8h1.5V46.9z
			 M71.7,31.5L71.7,31.5h4.7c0.7,0,1.4,0.4,1.8,1l0.2,0.4h-6.7V31.5z M71.7,34.2h7.5l2.7,4.4c0.2,0.3,0.3,0.7,0.3,1v0.7h-1.3
			c-0.4,0-0.7-0.1-1-0.4L79,39c-0.5-0.5-1.2-0.8-1.9-0.8h-5.4V34.2z M75.2,50.9c-1.9,0-3.5-1.5-3.5-3.4s1.6-3.4,3.5-3.4
			s3.5,1.5,3.5,3.4S77.1,50.9,75.2,50.9z M80.1,45.5v1.4H80c-0.3-2.3-2.3-4-4.7-4c-1.4,0-2.6,0.6-3.5,1.5v-4.9h5.4
			c0.4,0,0.7,0.1,1,0.4l0.9,0.8c0.5,0.5,1.2,0.8,1.9,0.8h1.3v2.8h-0.7C80.7,44.3,80.1,44.8,80.1,45.5z M82.8,46.9L82.8,46.9h-1.5
			v-1.4l0,0h1.4l0,0L82.8,46.9L82.8,46.9z M60.3,39.3c0.1,0.1,0.3,0.2,0.5,0.2s0.3-0.1,0.5-0.2l3.4-3.3l0,0l0,0c0,0,0,0,0-0.1l0,0
			c0,0,0,0,0-0.1l0,0l0,0v-0.1l0,0v-0.1l0,0v-0.1l0,0v-0.1l0,0v-0.1l0,0c0-0.1,0-0.1-0.1-0.1l0,0c0,0,0,0-0.1-0.1l-3.4-3.3
			c-0.3-0.2-0.7-0.2-0.9,0c-0.3,0.2-0.3,0.6,0,0.9l2.3,2.3H51.7c-0.4,0.5-0.8,0.9-1.3,1.3h12.3L60.3,39.3z M55.9,45.6
			c-1.1,0-2,0.9-2,2s0.9,2,2,2s2-0.9,2-2S57,45.6,55.9,45.6z M55.9,48.3c-0.4,0-0.7-0.3-0.7-0.7s0.3-0.7,0.7-0.7s0.7,0.3,0.7,0.7
			C56.6,47.9,56.3,48.3,55.9,48.3z M75.2,45.6c-1.1,0-2,0.9-2,2s0.9,2,2,2s2-0.9,2-2S76.3,45.6,75.2,45.6z M75.2,48.3
			c-0.4,0-0.7-0.3-0.7-0.7s0.3-0.7,0.7-0.7c0.4,0,0.7,0.3,0.7,0.7C75.9,47.9,75.6,48.3,75.2,48.3z"/>
	</g>
</g>
<text transform="matrix(1 0 0 1 95.7133 48.0694)" class="st1 st2 st3">Add New Dealer</text>
<circle class="st4" cx="44.3" cy="28.2" r="6.5"/>
<rect x="43.5" y="24" class="st1" width="1.5" height="8.2"/>
<rect x="40.2" y="27.4" class="st1" width="8.2" height="1.5"/>
</svg>
