<?xml version="1.0" encoding="utf-8"?>
<!-- Generator: Adobe Illustrator 20.0.0, SVG Export Plug-In . SVG Version: 6.00 Build 0)  -->
<svg version="1.1" id="Layer_1" xmlns="http://www.w3.org/2000/svg" xmlns:xlink="http://www.w3.org/1999/xlink" x="0px" y="0px"
	 viewBox="0 0 50 50" style="enable-background:new 0 0 50 50;" xml:space="preserve">
<style type="text/css">
	.st0{fill:#010101;}
</style>
<g>
	<path class="st0" d="M44,6.5h-5.9V5.6c0-1.5-1.2-2.8-2.8-2.8h-0.8c-1.5,0-2.8,1.2-2.8,2.8v0.9H18V5.6c0-1.5-1.2-2.8-2.8-2.8h-0.8
		c-1.5,0-2.8,1.2-2.8,2.8v0.9H6c-1.5,0-2.8,1.2-2.8,2.8v34.3c0,1.5,1.2,2.8,2.8,2.8H44c1.5,0,2.8-1.2,2.8-2.8V9.3
		C46.8,7.8,45.5,6.5,44,6.5z M33.3,5.6c0-0.6,0.5-1.1,1.1-1.1h0.8c0.6,0,1.1,0.5,1.1,1.1v3.5c0,0.6-0.5,1.1-1.1,1.1h-0.8
		c-0.6,0-1.1-0.5-1.1-1.1V5.6z M13.3,5.6c0-0.6,0.5-1.1,1.1-1.1h0.8c0.6,0,1.1,0.5,1.1,1.1v3.5c0,0.6-0.5,1.1-1.1,1.1h-0.8
		c-0.6,0-1.1-0.5-1.1-1.1V5.6z M4.9,9.3c0-0.6,0.5-1.1,1.1-1.1h5.6v0.9c0,1.5,1.2,2.8,2.8,2.8h0.8c1.5,0,2.8-1.2,2.8-2.8V8.1h13.7
		v0.9c0,1.5,1.2,2.8,2.8,2.8h0.8c1.5,0,2.8-1.2,2.8-2.8V8.1H44c0.6,0,1.1,0.5,1.1,1.1V14H4.9V9.3z M44,44.8H6
		c-0.6,0-1.1-0.5-1.1-1.1v-28h40.2v28C45.1,44.3,44.6,44.8,44,44.8z"/>
	<path class="st0" d="M39.3,20.4h-6h-1.6h-5.9h-1.6h-6.1h-1.6h-5.8H9.9H9.1v20h0.8h0.8h5.8h1.6h6.1h1.6h5.9h1.6h6h0.8h0.8v-20h-0.8
		H39.3z M16.5,38.7h-5.8v-4.3h5.8V38.7z M16.5,32.8h-5.8v-4.3h5.8V32.8z M16.5,27h-5.8v-4.9h5.8V27z M24.2,38.7h-6.1v-4.3h6.1V38.7z
		 M24.2,32.8h-6.1v-4.3h6.1V32.8z M24.2,27h-6.1v-4.9h6.1V27z M31.7,38.7h-5.9v-4.3h5.9V38.7z M31.7,32.8h-5.9v-4.3h5.9V32.8z
		 M31.7,27h-5.9v-4.9h5.9V27z M39.3,38.7h-6v-4.3h6V38.7z M39.3,32.8h-6v-4.3h6V32.8z M39.3,27h-6v-4.9h6V27z"/>
</g>
</svg>
