<?xml version="1.0" encoding="utf-8"?>
<!-- Generator: Adobe Illustrator 20.0.0, SVG Export Plug-In . SVG Version: 6.00 Build 0)  -->
<svg version="1.1" id="Layer_1" xmlns="http://www.w3.org/2000/svg" xmlns:xlink="http://www.w3.org/1999/xlink" x="0px" y="0px"
	 viewBox="0 0 29.7 30" style="enable-background:new 0 0 29.7 30;" xml:space="preserve">
<style type="text/css">
	.st0{fill:#FFFFFF;}
</style>
<g>
	<path class="st0" d="M14.8,28.1C7.6,28.1,1.7,22.2,1.7,15S7.6,1.9,14.8,1.9C22.1,1.9,28,7.8,28,15S22.1,28.1,14.8,28.1z M14.8,2.9
		C8.1,2.9,2.7,8.3,2.7,15s5.4,12.1,12.1,12.1C21.5,27.1,27,21.7,27,15S21.5,2.9,14.8,2.9z"/>
</g>
<g>
	<path class="st0" d="M14.2,15.4L8.4,9.2h1.8l5,5.4L20,9.2h1.7L16,15.4l6.2,6.6h-1.8l-5.3-5.7l-5.3,5.7H8.1L14.2,15.4z"/>
</g>
</svg>
