<?xml version="1.0" encoding="utf-8"?>
<!-- Generator: Adobe Illustrator 20.0.0, SVG Export Plug-In . SVG Version: 6.00 Build 0)  -->
<svg version="1.1" id="Layer_1" xmlns="http://www.w3.org/2000/svg" xmlns:xlink="http://www.w3.org/1999/xlink" x="0px" y="0px"
	 viewBox="0 0 31 27.8" style="enable-background:new 0 0 31 27.8;" xml:space="preserve">
<style type="text/css">
	.st0{fill-rule:evenodd;clip-rule:evenodd;fill:#8E8E93;}
</style>
<g id="Shape_11">
	<g>
		<path class="st0" d="M20.7,16.9c2.9-3.9,2.6-9.5-1-13C17.8,2,15.3,1,12.6,1C9.9,1,7.4,2,5.5,3.9C3.7,5.8,2.6,8.3,2.6,11
			c0,2.7,1,5.2,2.9,7.1C7.4,20,9.9,21,12.6,21c2.2,0,4.2-0.7,5.9-1.9l7.7,7.7l2.1-2.1L20.7,16.9z M18.3,16.7
			c-1.5,1.5-3.5,2.3-5.7,2.3c-2.1,0-4.2-0.8-5.7-2.3c-1.5-1.5-2.3-3.5-2.3-5.7c0-2.1,0.8-4.2,2.3-5.7C8.5,3.8,10.5,3,12.6,3
			c2.1,0,4.2,0.8,5.7,2.3C21.4,8.5,21.4,13.5,18.3,16.7z"/>
	</g>
</g>
</svg>
