<?xml version="1.0" encoding="utf-8"?>
<!-- Generator: Adobe Illustrator 20.0.0, SVG Export Plug-In . SVG Version: 6.00 Build 0)  -->
<svg version="1.1" id="Layer_1" xmlns="http://www.w3.org/2000/svg" xmlns:xlink="http://www.w3.org/1999/xlink" x="0px" y="0px"
	 viewBox="0 0 60 60" style="enable-background:new 0 0 60 60;" xml:space="preserve">
<style type="text/css">
	.st0{fill:#FFFFFF;}
</style>
<g>
	<path class="st0" d="M45,14.5c-2.2-2.2-5.8-2.2-8.1,0L14.6,36.9c-0.1,0.1-0.2,0.3-0.2,0.4l-1.1,8.1c0,0.2,0,0.5,0.2,0.6
		c0.1,0.1,0.3,0.2,0.5,0.2c0,0,0.1,0,0.1,0l8-1.1c0,0,0,0,0.1,0c0.2,0,0.4-0.1,0.5-0.2L45,22.6c1.1-1.1,1.7-2.5,1.7-4
		C46.7,17,46.1,15.6,45,14.5z M22.2,43.4l-1.6-1.6l0,0l0,0l-1.9-1.9l0,0l-2.2-2.2l0,0l0,0l-0.3-0.3l21-21.1l1.3,1.3l1.8,1.8l0,0
		l2.9,2.9L22.2,43.4z M44.2,21.2l-5.9-5.9c0.8-0.6,1.7-1,2.7-1c1.1,0,2.2,0.4,3,1.2c0.8,0.8,1.2,1.9,1.2,3
		C45.2,19.5,44.9,20.5,44.2,21.2z"/>
</g>
<g>
	<path class="st0" d="M30,56.8c-14.8,0-26.8-12-26.8-26.8S15.3,3.3,30,3.3s26.8,12,26.8,26.8S44.8,56.8,30,56.8z M30,5.3
		C16.4,5.3,5.3,16.4,5.3,30c0,13.6,11.1,24.8,24.8,24.8c13.6,0,24.8-11.1,24.8-24.8C54.8,16.4,43.6,5.3,30,5.3z"/>
</g>
</svg>
