<?xml version="1.0" encoding="utf-8"?>
<!-- Generator: Adobe Illustrator 20.0.0, SVG Export Plug-In . SVG Version: 6.00 Build 0)  -->
<svg version="1.1" id="Layer_1" xmlns="http://www.w3.org/2000/svg" xmlns:xlink="http://www.w3.org/1999/xlink" x="0px" y="0px"
	 viewBox="0 0 154.4 154.4" style="enable-background:new 0 0 154.4 154.4;" xml:space="preserve">
<style type="text/css">
	.st0{fill:#D9D9D8;}
	.st1{fill-rule:evenodd;clip-rule:evenodd;fill:#D9D9D8;}
</style>
<g>
	<g>
		<path class="st0" d="M77.2,150.4C36.8,150.4,4,117.5,4,77.2S36.8,4,77.2,4s73.2,32.8,73.2,73.2S117.5,150.4,77.2,150.4z
			 M77.2,13.5c-35.1,0-63.7,28.6-63.7,63.7s28.6,63.7,63.7,63.7c35.1,0,63.7-28.6,63.7-63.7S112.3,13.5,77.2,13.5z"/>
	</g>
</g>
<g>
	<path class="st0" d="M118.2,133.7c-1.3,0-2.7-0.5-3.7-1.5L21.4,40c-1-1-1.5-2.4-1.5-3.7c0-1.3,0.5-2.7,1.5-3.7c2-2,5.3-2.1,7.4,0
		l93.1,92.2c1,1,1.5,2.4,1.5,3.7c0,1.3-0.5,2.7-1.5,3.7C120.9,133.2,119.5,133.7,118.2,133.7z"/>
</g>
<g id="Shape_126">
	<path class="st1" d="M83.1,86c-1.2,0-2.2,1-2.2,2.2c0,1.2,1,2.2,2.2,2.2h1.1c1.2,0,2.2-1,2.2-2.2c0-1.2-1-2.2-2.2-2.2H83.1z
		 M55.2,90.4h0.7c0.8,0,1.4-0.6,1.4-1.4c0-0.8-0.6-1.4-1.4-1.4h-0.7c-0.8,0-1.4,0.6-1.4,1.4C53.8,89.8,54.4,90.4,55.2,90.4z
		 M100.4,86.2c-5.2-2.3-7.6-5.1-7.6-5.1l-1.6,1.8c0,1.7,5.1,4.4,5.1,4.4l-9.8,23.6l-0.7-12.1l-0.3-6.6H82l-0.3,8l-0.4,10.7l-10-23.3
		c0,0,5.3-2.9,5.3-4.7l-1.6-1.8c0,0-2.4,2.8-7.6,5.1c-6.9,3-15.7,11.7-12.8,26h58.5C116.1,97.9,107.3,89.2,100.4,86.2z M71.5,73.4
		c0.2,0,0.4,0,0.6-0.1c0.4,1.3,0.9,2.6,1.5,3.7c1.1,2.2,2.6,3.9,4.3,5.1c2.7,1.8,5.1,2,5.8,2h0.1c5.6,0,9.6-3.4,11.8-9.9
		c0.1-0.3,0.2-0.6,0.3-0.9c0.2,0.1,0.5,0.2,0.7,0.2c0.9,0,1.7-0.7,2.3-2c0.8-1.9,1.1-4.5,0-5.6c-0.5-0.5-1.1-0.7-1.6-0.7
		c0-0.4,0-0.6,0-0.7c0,0,3.8-13.4-9.9-16.1c0,0-12.6-3.6-17.3,8.1c0,0-1.5,4.7-0.2,8.8c-0.3,0.1-0.7,0.3-1,0.5c-1.3,1.1-1,3.7,0,5.6
		C69.6,72.6,70.5,73.4,71.5,73.4z M97.2,66.5c0.3,0,0.7,0,1,0.4c0.4,0.4,0.4,2.2-0.3,3.7c-0.3,0.6-0.9,1.6-1.6,1.2
		C96.8,69.8,97,67.9,97.2,66.5z M74.6,65.5c0,0,10.8-0.9,12.8-6.4c0,0,4.1,5.1,8.4,5.4c0,0.7-0.1,4.9-1.6,9.1
		c-2,5.9-5.5,8.9-10.4,8.9h0c0,0-2.5,0.1-5.1-1.8c-3.3-2.3-5.4-6.8-6.3-12.8L74.6,65.5z M69.7,66.9c0.2-0.2,0.5-0.3,0.8-0.3
		c0.1,0.3,0.3,0.5,0.4,0.7c0.2,1.6,0.5,3.1,0.8,4.6c-0.8,0.1-1.4-0.7-1.7-1.3C69.2,69.1,69.2,67.3,69.7,66.9z M51.2,85.8l-1-1.1
		c0,0-1.5,1.8-4.8,3.2c-4.4,1.9-9.9,7.4-8.1,16.4H52c0.1-1.5,0.4-2.8,0.8-4.1l-4.9-11.4C47.9,88.8,51.2,86.9,51.2,85.8z M48,79.8
		c0.1,0,0.2,0,0.4-0.1c0.3,0.8,0.6,1.6,0.9,2.3c0.7,1.4,1.6,2.4,2.7,3.2c1.7,1.2,3.2,1.2,3.6,1.2h0.1c3.5,0,6.1-2.2,7.5-6.3
		c0.1-0.2,0.1-0.4,0.2-0.6c0.1,0.1,0.3,0.1,0.4,0.1c0.6,0,1.1-0.5,1.5-1.3c0.5-1.2,0.7-2.9,0-3.5c-0.3-0.3-0.7-0.4-1-0.4
		c0-0.2,0-0.4,0-0.4c0,0,2.4-8.5-6.2-10.2c0,0-7.9-2.3-10.9,5.1c0,0-1,2.9-0.1,5.5c-0.2,0.1-0.4,0.2-0.6,0.3c-0.8,0.7-0.6,2.4,0,3.5
		C46.7,79.4,47.3,79.8,48,79.8z M64.1,75.5c0.2,0,0.4,0,0.7,0.2c0.3,0.3,0.3,1.4-0.2,2.3c-0.2,0.4-0.5,1-1,0.8
		C63.9,77.5,64.1,76.4,64.1,75.5z M49.9,74.8c0,0,6.8-0.6,8.1-4c0,0,2.6,3.2,5.3,3.4c0,0.4-0.1,3.1-1,5.8c-1.3,3.7-3.5,5.6-6.6,5.6
		h0c0,0-1.6,0.1-3.2-1.1c-2.1-1.5-3.4-4.3-3.9-8.1L49.9,74.8z M46.8,75.7c0.2-0.1,0.3-0.2,0.5-0.2c0.1,0.2,0.2,0.3,0.3,0.5
		c0.1,1,0.3,2,0.5,2.9C47.6,79,47.2,78.4,47,78C46.5,77.1,46.5,76,46.8,75.7z M56.8,91.6h-2.6L54,98.5c0.8-1.9,1.8-3.7,2.9-5.2
		L56.8,91.6z"/>
</g>
</svg>
